<svg xmlns="http://www.w3.org/2000/svg" viewBox="0 0 50.56 50.54">
    <defs>
        <style>
            .cls-1{fill:#775454;}
            .cls-2{fill:#af8585;}
            @media (prefers-color-scheme: dark) {
            .cls-1{fill:#dedddd;}
            .cls-2{fill:#af8585;}
            }
        </style>
    </defs>
            <path class="cls-1"
                  d="M50.51,23.81a.38.38,0,0,0-.37-.34H37.85a.36.36,0,0,0-.36.32.31.31,0,0,0,0,.21l.69,1.69.48,1.21a.37.37,0,0,0,.34.23H46.2a.36.36,0,0,1,.36.4,21.46,21.46,0,0,1-42,3.52.35.35,0,0,0-.34-.26H1.07a.37.37,0,0,0-.36.45,25.28,25.28,0,0,0,49.85-6C50.56,24.77,50.54,24.29,50.51,23.81Z"/>
            <path class="cls-1"
                  d="M3.9,27.13h6.29a.39.39,0,0,0,.35-.24L11.71,24a.39.39,0,0,0-.36-.53h-7a.37.37,0,0,1-.36-.4,21.46,21.46,0,0,1,42-3.52.34.34,0,0,0,.34.26H49.5a.36.36,0,0,0,.36-.45A25.28,25.28,0,0,0,0,25.29c0,.51,0,1,0,1.51a.37.37,0,0,0,.37.33H3.9Z"/>
            <path class="cls-2"
                  d="M36.78,36.26,27.69,11.67a.5.5,0,0,0-.47-.33H23.13a.51.51,0,0,0-.47.33L13.53,36.26a.5.5,0,0,0,.47.68h3.45a.5.5,0,0,0,.48-.34l1.24-3.55H31.09l1.28,3.56a.5.5,0,0,0,.48.33h3.46A.5.5,0,0,0,36.78,36.26ZM24.6,17.06c.09-.28.16-.54.23-.73s.13-.45.23-.74h.09c.08.31.16.55.22.78s.15.47.25.73l2.19,6.34h-5.4ZM20.41,29.39l.68-2.13,0-.07h0l0-.09h7.94l0,.09h0l0,.07.68,2.13Z"/>
</svg>