<?xml version="1.0" standalone="no"?>
<!DOCTYPE svg PUBLIC "-//W3C//DTD SVG 20010904//EN"
 "http://www.w3.org/TR/2001/REC-SVG-20010904/DTD/svg10.dtd">
<svg version="1.0" xmlns="http://www.w3.org/2000/svg"
 width="512.000000pt" height="512.000000pt" viewBox="0 0 512.000000 512.000000"
 preserveAspectRatio="xMidYMid meet">
<metadata>
Created by potrace 1.14, written by Peter Selinger 2001-2017
</metadata>
<g transform="translate(0.000000,512.000000) scale(0.100000,-0.100000)"
fill="#000000" stroke="none">
<path d="M2497 4834 c-1 -1 -48 -4 -103 -8 -56 -3 -108 -8 -115 -10 -8 -3 -34
-7 -59 -10 -65 -8 -107 -16 -175 -32 -33 -8 -67 -16 -76 -19 -34 -8 -176 -54
-229 -75 -199 -77 -395 -187 -574 -323 -105 -79 -326 -300 -404 -403 -220
-292 -376 -634 -437 -959 -38 -204 -54 -577 -25 -595 19 -12 899 -11 921 1 10
5 21 23 24 41 4 18 11 38 15 43 21 29 80 199 75 216 -7 23 24 21 -363 21 -297
1 -313 2 -323 20 -11 21 -5 85 18 193 8 39 16 79 18 89 9 40 66 217 85 261 11
25 20 47 20 50 2 19 111 214 166 295 128 192 257 326 479 498 80 62 355 212
388 212 7 0 17 4 23 8 17 16 231 85 299 96 17 3 53 10 80 15 169 32 499 35
635 6 14 -3 41 -8 60 -11 19 -3 43 -7 52 -10 9 -3 25 -7 35 -9 56 -11 140 -37
228 -70 395 -148 740 -429 963 -787 59 -94 154 -285 168 -338 2 -8 17 -53 32
-100 l29 -85 149 -3 c82 -1 159 0 172 3 28 7 28 27 1 119 -45 155 -89 267
-158 405 -75 149 -87 169 -182 302 -284 396 -684 688 -1159 846 -41 13 -86 27
-100 29 -14 3 -50 11 -80 19 -68 17 -101 24 -165 31 -27 3 -52 7 -55 9 -13 8
-344 25 -353 19z"/>
<path d="M2339 3800 c-9 -8 -78 -181 -154 -385 -271 -733 -297 -802 -340 -915
-23 -63 -48 -128 -53 -145 -6 -16 -58 -158 -117 -315 -59 -157 -108 -289 -109
-295 -2 -5 -8 -23 -15 -38 -6 -16 -21 -58 -34 -93 -34 -99 -36 -98 178 -102
117 -2 182 1 189 8 6 6 36 84 67 173 l57 162 537 0 537 0 13 -35 c8 -19 33
-89 56 -155 23 -66 49 -128 57 -137 13 -16 36 -18 188 -18 144 0 175 3 188 16
9 8 16 16 16 17 -1 7 -30 97 -38 117 -11 25 -60 160 -262 710 -62 168 -116
314 -121 325 -14 33 -120 319 -124 335 -2 8 -42 119 -90 245 -47 127 -99 268
-116 315 -18 47 -38 99 -45 117 -8 17 -14 37 -14 45 0 7 -9 24 -19 37 -19 25
-19 25 -217 25 -162 1 -201 -2 -215 -14z m380 -885 c28 -82 56 -158 61 -167 5
-9 6 -19 2 -21 -6 -3 -455 -1 -474 2 -4 0 8 43 26 94 18 50 70 202 115 337 45
135 85 252 87 260 5 14 29 -53 183 -505z m215 -622 l35 -103 -424 0 -424 0 20
63 c11 34 27 80 35 102 l14 40 355 0 355 0 34 -102z"/>
<path d="M3674 2715 c-17 -13 -19 -35 -7 -65 6 -14 30 -72 53 -130 23 -58 47
-111 52 -117 8 -10 92 -13 345 -12 215 0 339 -4 347 -11 10 -8 10 -27 0 -94
-7 -46 -15 -93 -18 -103 -3 -10 -8 -34 -11 -53 -3 -19 -13 -60 -22 -90 -9 -30
-18 -59 -19 -65 -19 -90 -136 -334 -229 -476 -280 -429 -723 -727 -1240 -834
-195 -40 -536 -42 -720 -4 -113 23 -260 62 -300 80 -11 5 -43 17 -72 28 -139
54 -334 166 -473 274 -68 52 -238 219 -303 297 -69 82 -175 247 -229 357 -61
125 -66 136 -109 263 -18 52 -34 97 -35 99 -7 8 -300 7 -316 -1 -24 -12 -22
-38 11 -148 44 -144 67 -202 141 -355 219 -449 600 -827 1055 -1044 166 -80
398 -158 520 -176 22 -4 56 -10 75 -15 19 -5 62 -11 95 -15 33 -3 80 -8 105
-11 104 -12 397 -5 483 11 11 3 41 7 67 10 71 8 274 60 390 100 195 67 521
243 642 347 14 13 46 39 70 58 23 19 88 79 144 135 454 453 689 1055 665 1705
-2 67 37 63 -582 64 -361 1 -567 -3 -575 -9z"/>
</g>
</svg>
