<?xml version="1.0" standalone="no"?>
<!DOCTYPE svg PUBLIC "-//W3C//DTD SVG 20010904//EN"
 "http://www.w3.org/TR/2001/REC-SVG-20010904/DTD/svg10.dtd">
<svg version="1.0" xmlns="http://www.w3.org/2000/svg"
 width="2251.000000pt" height="2251.000000pt" viewBox="0 0 2251.000000 2251.000000"
 preserveAspectRatio="xMidYMid meet">
<metadata>
Created by potrace 1.14, written by Peter Selinger 2001-2017
</metadata>
<g transform="translate(0.000000,2251.000000) scale(0.100000,-0.100000)"
fill="#000000" stroke="none">
<path d="M10869 21246 c-2 -2 -71 -7 -154 -10 -82 -3 -161 -8 -175 -10 -14 -3
-70 -7 -125 -11 -55 -4 -106 -8 -115 -10 -8 -2 -51 -6 -95 -9 -44 -4 -87 -9
-95 -11 -8 -2 -42 -6 -75 -10 -33 -3 -71 -8 -85 -10 -14 -2 -45 -7 -70 -10
-25 -3 -56 -8 -70 -10 -14 -2 -45 -7 -70 -10 -85 -12 -430 -75 -572 -105 -749
-160 -1489 -408 -2173 -731 -38 -18 -72 -33 -75 -34 -17 -4 -402 -203 -504
-260 -89 -50 -151 -85 -166 -95 -8 -6 -22 -13 -30 -17 -70 -32 -581 -361 -775
-499 -218 -156 -638 -485 -713 -560 -7 -7 -33 -30 -59 -51 -25 -21 -61 -51
-78 -68 -18 -16 -79 -73 -136 -125 -225 -206 -545 -535 -739 -760 -30 -36 -71
-82 -91 -105 -106 -120 -389 -483 -533 -685 -71 -100 -260 -383 -320 -480 -32
-52 -71 -115 -87 -140 -224 -361 -518 -948 -704 -1404 -96 -236 -265 -705
-280 -776 -4 -17 -38 -129 -46 -150 -5 -14 -11 -34 -13 -45 -2 -11 -16 -60
-31 -110 -28 -98 -130 -509 -140 -565 -3 -19 -10 -51 -15 -70 -5 -19 -11 -51
-14 -71 -3 -20 -8 -42 -10 -50 -3 -8 -7 -30 -10 -49 -3 -19 -8 -46 -11 -60
-10 -49 -53 -306 -61 -370 -3 -19 -7 -46 -9 -60 -3 -14 -7 -50 -10 -80 -4 -30
-8 -62 -10 -70 -2 -8 -7 -44 -10 -80 -3 -36 -8 -81 -10 -100 -2 -19 -7 -62
-10 -95 -3 -33 -7 -82 -10 -110 -5 -52 -9 -114 -22 -300 -10 -141 -10 -1050
-1 -1133 8 -71 33 -114 81 -138 28 -15 212 -17 1991 -18 1492 -1 1968 2 1995
11 19 6 45 23 58 36 15 14 74 145 149 333 69 170 129 318 134 329 146 356 221
556 221 592 1 59 -33 110 -87 134 -41 19 -93 19 -1464 19 -1559 -1 -1459 -4
-1505 58 -22 29 -26 114 -13 222 4 30 12 91 18 135 5 44 14 105 20 135 5 30
12 73 15 95 3 23 7 50 9 60 9 48 36 193 41 225 10 59 64 299 96 425 17 66 32
127 35 135 2 8 15 56 29 105 15 50 27 95 29 100 16 66 175 536 196 580 5 11
28 70 51 130 59 154 177 422 268 605 102 205 173 344 180 350 3 3 13 19 21 35
54 109 291 493 407 660 34 50 68 98 75 109 71 104 401 534 427 556 3 3 33 37
66 75 33 39 62 72 65 75 3 3 41 46 85 95 78 89 462 477 560 566 284 258 598
508 925 735 109 76 390 257 455 294 16 9 73 42 125 72 52 30 118 68 145 83 84
47 487 250 545 275 71 30 160 69 183 81 25 13 406 165 437 174 14 4 39 13 55
20 17 8 102 37 190 65 88 28 171 56 185 60 91 33 594 165 695 184 61 11 92 17
160 31 81 16 222 41 280 50 23 3 50 7 60 9 11 2 42 7 68 10 27 4 56 9 65 11
10 1 46 6 82 10 36 3 72 8 80 10 22 5 137 16 310 30 52 4 108 8 123 10 174 21
869 21 1117 0 25 -2 81 -7 125 -10 109 -8 185 -15 215 -20 14 -2 55 -6 92 -10
37 -3 75 -7 85 -9 24 -5 96 -14 158 -21 28 -4 57 -8 65 -10 8 -2 35 -7 60 -10
25 -3 52 -8 60 -10 8 -2 35 -7 60 -10 25 -3 52 -8 60 -10 8 -2 31 -7 50 -10
43 -6 110 -21 215 -45 44 -11 96 -22 115 -25 39 -7 290 -70 360 -90 25 -8 79
-23 120 -35 113 -33 534 -172 545 -181 6 -4 12 -7 15 -8 19 0 318 -120 485
-194 1247 -552 2351 -1403 3199 -2467 73 -91 163 -208 201 -260 38 -52 72 -97
75 -100 14 -12 294 -438 346 -525 372 -626 638 -1213 840 -1852 31 -98 57
-185 59 -193 9 -43 37 -127 48 -141 7 -9 28 -26 47 -38 35 -21 40 -21 686 -21
358 0 666 3 684 6 44 9 97 65 106 110 6 33 -22 178 -57 289 -5 17 -27 95 -49
175 -161 572 -403 1200 -662 1715 -77 152 -178 347 -188 360 -4 6 -27 46 -50
90 -53 97 -201 345 -277 463 -90 142 -286 431 -320 472 -6 8 -53 71 -104 140
-51 69 -112 150 -136 180 -24 30 -50 62 -56 70 -31 40 -92 116 -97 120 -3 3
-39 45 -80 95 -72 87 -199 230 -304 345 -70 77 -487 492 -566 565 -36 33 -99
89 -140 125 -41 36 -77 67 -80 70 -18 18 -215 182 -320 266 -334 266 -713 529
-1083 753 -93 55 -170 101 -172 101 -2 0 -28 14 -57 31 -29 18 -82 47 -118 67
-36 19 -88 47 -116 63 -64 35 -344 175 -444 222 -195 91 -231 107 -235 107 -2
0 -32 13 -67 29 -158 72 -619 246 -838 316 -47 15 -92 29 -100 33 -18 6 -39
13 -272 81 -148 43 -520 138 -608 155 -14 2 -50 10 -80 16 -30 6 -66 13 -80
16 -14 2 -45 9 -70 14 -50 11 -194 36 -285 50 -33 6 -71 12 -85 14 -47 9 -235
35 -295 41 -33 4 -67 8 -75 10 -8 2 -51 7 -95 10 -44 3 -91 8 -105 10 -14 3
-54 7 -90 10 -66 5 -173 13 -290 22 -77 6 -956 14 -961 9z"/>
<path d="M10346 16759 c-51 -14 -95 -53 -120 -104 -30 -61 -32 -67 -151 -390
-177 -479 -196 -530 -207 -555 -5 -14 -34 -92 -64 -175 -30 -82 -59 -159 -63
-170 -5 -11 -21 -54 -36 -95 -25 -71 -45 -123 -67 -180 -6 -14 -21 -56 -35
-95 -13 -38 -28 -79 -33 -90 -5 -11 -54 -141 -109 -290 -87 -238 -198 -537
-427 -1155 -36 -96 -74 -200 -86 -230 -11 -30 -23 -64 -28 -75 -24 -62 -51
-133 -95 -255 -15 -41 -38 -102 -50 -135 -13 -33 -71 -190 -130 -350 -98 -264
-194 -523 -505 -1360 -60 -159 -176 -474 -259 -698 -84 -224 -156 -418 -161
-430 -5 -12 -47 -125 -94 -252 -101 -275 -157 -428 -281 -760 -51 -137 -139
-374 -195 -525 -272 -733 -352 -948 -365 -980 -13 -33 -66 -176 -125 -340 -15
-41 -37 -100 -49 -130 -37 -96 -24 -186 34 -245 62 -61 33 -59 813 -59 780 -1
775 -2 833 56 38 39 43 50 129 298 81 233 80 231 88 250 3 8 6 17 7 20 1 3 4
12 8 20 3 8 58 166 122 350 64 184 133 382 154 440 l37 105 2355 0 2354 0 132
-365 c73 -201 144 -396 157 -435 70 -198 194 -538 211 -580 7 -16 16 -40 19
-52 11 -34 84 -91 129 -100 22 -5 363 -8 757 -8 l717 0 48 30 c62 38 99 105
97 173 -1 32 -26 114 -77 252 -42 113 -82 221 -89 240 -51 141 -98 268 -106
285 -4 11 -26 70 -48 130 -42 114 -87 236 -224 605 -43 118 -129 350 -190 515
-61 165 -121 327 -133 360 -12 33 -79 213 -148 400 -69 187 -161 437 -205 555
-44 118 -137 370 -207 560 -69 190 -132 361 -140 380 -19 45 -96 252 -99 265
-2 6 -6 17 -9 25 -4 8 -67 182 -142 385 -132 360 -198 539 -215 580 -4 11 -17
45 -28 75 -11 30 -33 91 -50 135 -16 44 -44 121 -62 170 -18 50 -36 99 -40
110 -5 11 -34 88 -64 170 -116 316 -247 671 -253 685 -3 8 -7 17 -8 20 -1 3
-4 12 -8 20 -3 8 -114 310 -247 670 -132 360 -244 662 -247 670 -3 8 -7 17 -8
20 -1 3 -4 12 -8 20 -3 8 -47 128 -97 265 -51 138 -128 347 -172 465 -44 118
-104 283 -135 365 -170 461 -161 440 -201 478 -58 56 -37 54 -941 54 -460 0
-849 -4 -865 -8z m873 -1756 c12 -43 29 -100 37 -128 27 -96 95 -310 109 -345
12 -31 77 -217 118 -340 9 -25 45 -130 82 -235 36 -104 90 -260 120 -345 158
-458 240 -695 305 -880 39 -113 93 -268 120 -345 75 -218 127 -368 135 -387 7
-17 -48 -18 -1059 -18 -586 0 -1066 3 -1066 8 0 4 21 66 46 137 25 72 58 168
74 215 39 116 129 380 245 715 53 154 107 312 120 350 13 39 44 129 69 200
279 809 312 907 412 1228 89 286 96 295 133 170z m1557 -4543 c13 -36 43 -128
68 -205 24 -77 76 -239 115 -360 38 -121 73 -231 76 -245 l6 -25 -1856 0
c-1020 0 -1855 3 -1855 6 0 3 20 66 44 140 24 74 52 163 64 199 11 36 52 164
91 285 38 121 73 232 77 248 l6 27 1571 -2 1570 -3 23 -65z"/>
<path d="M16165 11956 c-32 -14 -84 -68 -86 -89 -8 -66 0 -95 74 -277 43 -107
144 -357 224 -555 192 -477 187 -465 231 -494 l37 -25 1460 0 c1436 -1 1461
-1 1493 -21 18 -11 42 -38 53 -61 20 -42 20 -58 4 -184 -3 -19 -7 -55 -10 -80
-7 -67 -15 -118 -45 -300 -11 -69 -23 -141 -26 -160 -3 -19 -9 -51 -14 -70 -5
-19 -11 -52 -14 -72 -3 -21 -11 -59 -17 -85 -6 -27 -13 -57 -15 -68 -6 -32
-100 -404 -118 -470 -71 -258 -244 -756 -326 -940 -10 -22 -39 -88 -64 -147
-45 -104 -118 -266 -137 -300 -17 -32 -27 -52 -65 -128 -69 -139 -163 -312
-199 -370 -14 -22 -25 -42 -25 -45 0 -17 -286 -465 -411 -645 -32 -45 -184
-252 -206 -280 -94 -119 -250 -310 -298 -365 -34 -38 -75 -85 -91 -104 -74
-85 -172 -189 -334 -351 -231 -232 -351 -343 -540 -500 -30 -25 -70 -59 -90
-76 -121 -104 -414 -323 -629 -468 -218 -149 -393 -255 -741 -451 -199 -112
-618 -305 -910 -420 -264 -104 -754 -267 -869 -290 -9 -2 -60 -15 -114 -30
-53 -14 -107 -28 -120 -30 -12 -2 -40 -9 -62 -14 -122 -30 -238 -56 -305 -66
-14 -2 -36 -7 -50 -10 -14 -3 -36 -8 -50 -10 -25 -4 -68 -11 -105 -19 -11 -2
-40 -7 -65 -10 -25 -3 -55 -8 -68 -11 -51 -10 -338 -46 -472 -59 -343 -34
-756 -46 -1148 -31 -103 3 -203 8 -222 10 -19 2 -73 6 -120 9 -121 9 -400 39
-480 51 -14 3 -56 9 -95 14 -82 12 -139 21 -169 27 -11 2 -48 9 -81 14 -66 11
-211 40 -322 64 -40 9 -85 18 -100 21 -23 4 -275 69 -308 79 -5 2 -23 6 -40
10 -216 55 -642 199 -935 318 -658 266 -1314 638 -1898 1075 -137 102 -404
318 -472 379 -14 13 -36 33 -50 44 -169 141 -584 558 -766 770 -22 25 -41 47
-44 50 -26 23 -220 262 -325 400 -35 47 -68 90 -72 95 -36 46 -197 277 -275
395 -400 609 -738 1306 -953 1970 -26 80 -51 154 -56 165 -5 11 -23 72 -40
135 -18 63 -41 127 -52 143 -43 62 -17 60 -733 60 -628 0 -653 0 -689 -19 -71
-37 -91 -112 -59 -224 8 -30 17 -64 19 -75 3 -11 18 -69 35 -130 17 -60 32
-118 35 -128 11 -46 94 -309 145 -462 87 -257 217 -590 311 -803 166 -372 370
-770 538 -1052 30 -49 169 -276 183 -298 10 -15 23 -37 29 -49 7 -13 16 -23
21 -23 4 0 8 -4 8 -10 0 -19 246 -372 404 -580 115 -151 368 -464 406 -500 3
-3 34 -39 70 -80 35 -41 89 -102 120 -135 80 -88 524 -531 601 -600 36 -33 85
-78 110 -100 48 -44 157 -138 203 -176 16 -13 46 -38 65 -55 329 -283 887
-674 1351 -946 315 -184 756 -410 1005 -515 33 -14 78 -33 100 -43 22 -10 69
-30 105 -44 36 -15 74 -31 85 -36 208 -98 1072 -381 1298 -426 10 -2 27 -6 37
-9 10 -3 27 -7 37 -9 10 -2 45 -11 78 -19 33 -9 105 -25 160 -37 55 -12 109
-23 120 -25 79 -17 216 -43 365 -69 84 -15 132 -22 200 -32 19 -2 49 -6 65 -9
73 -11 93 -14 150 -20 32 -4 66 -8 75 -10 8 -1 49 -6 90 -10 41 -3 86 -8 100
-10 14 -1 64 -6 110 -10 47 -3 101 -8 120 -10 266 -28 1167 -28 1470 0 25 2
81 6 125 10 43 3 93 8 110 10 16 2 60 7 96 10 36 3 76 7 90 10 13 2 49 6 79 9
30 4 66 8 80 11 14 2 48 7 75 10 28 3 75 10 105 15 30 5 69 11 85 13 17 3 73
12 125 22 52 9 107 18 122 21 72 12 398 80 469 98 25 6 232 57 249 61 85 19
438 124 615 182 185 61 639 230 730 273 11 5 108 48 215 95 178 79 578 277
725 359 33 18 83 46 110 61 503 279 1188 762 1605 1131 286 252 303 269 534
499 272 271 411 423 637 696 143 173 134 161 293 374 226 301 464 654 594 880
16 28 53 93 84 145 30 52 71 124 90 160 20 36 50 92 68 125 126 230 316 637
435 930 87 215 228 600 240 655 0 3 13 41 27 85 15 44 36 114 48 155 12 41 26
86 31 100 7 20 69 256 105 395 4 17 8 32 9 35 3 12 16 67 19 85 3 11 13 61 25
110 11 50 22 104 25 120 3 17 8 39 10 50 9 45 36 182 41 210 10 60 35 211 40
250 3 22 8 51 11 65 2 14 7 43 9 65 8 67 15 119 20 145 2 14 7 52 10 85 7 75
15 150 20 195 2 19 7 71 10 115 4 44 8 96 10 115 20 177 28 977 12 1203 -10
139 -23 177 -74 209 l-38 23 -2465 2 c-2053 2 -2470 0 -2495 -11z"/>
</g>
</svg>
