<svg xmlns="http://www.w3.org/2000/svg" viewBox="0 0 3.19 8.66"><defs><style>.cls-1{fill:#dedddd;}</style></defs><g id="Layer_2" data-name="Layer 2"><g id="Capa_1" data-name="Capa 1"><path class="cls-1" d="M32.75,8.5,20.45.17a1,1,0,0,0-1-.05,1,1,0,0,0-.53.88V7.83a.5.5,0,0,1-.5.5H1a1,1,0,0,0,0,2H19.39a1.5,1.5,0,0,0,1.5-1.5v-5a.5.5,0,0,1,.78-.41l8.12,5.5a.49.49,0,0,1,0,.82l-8.12,5.5a.5.5,0,0,1-.78-.41v-1.4a1,1,0,0,0-2,0v4.23a1,1,0,0,0,.53.88,1,1,0,0,0,.47.12,1,1,0,0,0,.56-.17l12.3-8.33a1,1,0,0,0,0-1.66Z"/></g></g></svg>